<?xml version="1.0" encoding="UTF-8"?>
<!DOCTYPE svg PUBLIC "-//W3C//DTD SVG 1.1//EN" "http://www.w3.org/Graphics/SVG/1.1/DTD/svg11.dtd">
<svg xmlns="http://www.w3.org/2000/svg" version="1.1" width="64px" height="64px" style="shape-rendering:geometricPrecision; text-rendering:geometricPrecision; image-rendering:optimizeQuality; fill-rule:evenodd; clip-rule:evenodd" xmlns:xlink="http://www.w3.org/1999/xlink">
<g><path style="opacity:1" fill="#fdfdfd" d="M -0.5,-0.5 C 20.8333,-0.5 42.1667,-0.5 63.5,-0.5C 63.5,20.8333 63.5,42.1667 63.5,63.5C 42.1667,63.5 20.8333,63.5 -0.5,63.5C -0.5,42.1667 -0.5,20.8333 -0.5,-0.5 Z"/></g>
<g><path style="opacity:1" fill="#181818" d="M 18.5,11.5 C 22.9811,10.8799 26.6478,12.2132 29.5,15.5C 28.0446,16.7445 26.7113,16.5778 25.5,15C 23.1667,14.3333 20.8333,14.3333 18.5,15C 15.8333,17.3333 15.8333,19.6667 18.5,22C 23.4033,22.8494 27.57,25.0161 31,28.5C 32.0568,32.886 30.5568,36.0527 26.5,38C 20.9343,39.5404 16.2677,38.2071 12.5,34C 13.0253,33.3076 13.6919,32.8076 14.5,32.5C 18.1657,36.7353 22.3323,37.4019 27,34.5C 27.6667,32.5 27.6667,30.5 27,28.5C 23.3261,26.6218 19.4927,25.1218 15.5,24C 12.184,18.7027 13.184,14.536 18.5,11.5 Z"/></g>
<g><path style="opacity:1" fill="#32c674" d="M 40.5,13.5 C 42.4672,13.2606 44.3005,13.5939 46,14.5C 49.6787,24.0356 52.8454,33.7023 55.5,43.5C 54.1779,43.67 53.0113,43.3366 52,42.5C 51.3581,40.2381 50.5248,38.0715 49.5,36C 45.1794,35.501 40.8461,35.3343 36.5,35.5C 36.2437,37.9372 35.5771,40.2706 34.5,42.5C 33.1667,43.8333 31.8333,43.8333 30.5,42.5C 34.2393,32.9478 37.5727,23.2812 40.5,13.5 Z"/></g>
<g><path style="opacity:1" fill="#f6fcf9" d="M 47.5,30.5 C 44.7131,31.4767 41.7131,31.81 38.5,31.5C 39.893,26.8203 41.393,22.1536 43,17.5C 45.1912,21.5729 46.6912,25.9062 47.5,30.5 Z"/></g>
<g><path style="opacity:1" fill="#99e5c0" d="M 47.5,30.5 C 48.0431,30.56 48.3764,30.8933 48.5,31.5C 45.0202,32.8056 41.6868,32.8056 38.5,31.5C 41.7131,31.81 44.7131,31.4767 47.5,30.5 Z"/></g>
</svg>
